<svg width="529" height="646" viewBox="0 0 529 646" fill="none" xmlns="http://www.w3.org/2000/svg">
<mask id="mask0" mask-type="alpha" maskUnits="userSpaceOnUse" x="0" y="0" width="529" height="646">
<path fill-rule="evenodd" clip-rule="evenodd" d="M0 363.375C0 529.922 264.113 646 264.113 646C264.113 646 528.226 529.922 528.226 363.375V80.75C528.226 80.75 512.288 83.0312 487.306 83.0312C431.992 83.0413 332.508 71.8675 264.113 0C203 64.2154 117.066 79.9738 60 82.5943C53.1998 82.9065 46.8096 83.0323 40.9201 83.0312C15.938 83.0312 0 80.75 0 80.75V141.136V363.375ZM264.113 78.865C193.77 128.51 112.575 140.536 60 142.649V142.957V143.484V144.012V144.543V145.075V145.61V146.146V146.685V147.225V147.767V148.312V148.858V149.406V149.957V150.509V151.063V151.619V152.177V152.737V153.299V153.863V154.429V154.996V155.566V156.138V156.711V157.287V157.864V158.443V159.024V159.607V160.192V160.779V161.368V161.959V162.551V163.146V163.742V164.34V164.941V165.543V166.146V166.752V167.36V167.969V168.581V169.194V169.809V170.426V171.045V171.665V172.288V172.912V173.538V174.166V174.796V175.428V176.062V176.697V177.334V177.973V178.614V179.256V179.901V180.547V181.195V181.845V182.497V183.15V183.805V184.462V185.121V185.782V186.444V187.108V187.774V188.442V189.112V189.783V190.456V191.131V191.807V192.486V193.166V193.847V194.531V195.216V195.903V196.592V197.283V197.975V198.669V199.365V200.062V200.761V201.462V202.165V202.869V203.575V204.283V204.992V205.703V206.416V207.13V207.847V208.565V209.284V210.005V210.728V211.453V212.179V212.907V213.637V214.368V215.101V215.836V216.572V217.31V218.05V218.791V219.534V220.278V221.024V221.772V222.522V223.273V224.025V224.78V225.536V226.293V227.052V227.813V228.575V229.339V230.105V230.872V231.641V232.411V233.183V233.957V234.732V235.509V236.287V237.067V237.849V238.632V239.416V240.202V240.99V241.779V242.57V243.363V244.157V244.952V245.749V246.548V247.348V248.15V248.953V249.758V250.564V251.372V252.181V252.992V253.804V254.618V255.433V256.25V257.069V257.889V258.71V259.533V260.357V261.183V262.01V262.839V263.67V264.501V265.335V266.169V267.006V267.843V268.682V269.523V270.365V271.208V272.053V272.9V273.748V274.597V275.448V276.3V277.154V278.009V278.865V279.723V280.582V281.443V282.305V283.169V284.034V284.9V285.768V286.637V287.508V288.38V289.253V290.128V291.004V291.881V292.76V293.641V294.522V295.405V296.29V297.175V298.062V298.951V299.841V300.732V301.625V302.519V303.414V304.31V305.208V306.108V307.008V307.91V308.813V309.718V310.624V311.531V312.44V313.35V314.261V315.173V316.087V317.002V317.918V318.836V319.755V320.675V321.597V322.52V323.444V324.369V325.296V326.224V327.153V328.084V329.015V329.948V330.883V331.818V332.755V333.693V334.632V335.573V336.514V337.457V338.402V339.347V340.294V341.242V342.191V343.141V344.093V345.046V345.999V346.955V347.911V348.869V349.827V350.788V351.749V352.711V353.675V354.639V355.605V356.572V357.541V358.51V359.481V360.453V361.426V362.4V363.375C60 415.696 103.713 470.576 168.203 519.253C198.183 541.881 228.516 560.028 251.542 572.568C256.062 575.029 260.273 577.26 264.113 579.252V78.865Z" fill="#2A2A2A"/>
</mask>
<g mask="url(#mask0)">
<path d="M-195.26 268.903L259.285 -180.076" stroke="#1C355E" stroke-width="0.323516" stroke-miterlimit="10"/>
<path d="M-184.81 279.226L269.735 -169.752" stroke="#1C355E" stroke-width="0.323516" stroke-miterlimit="10"/>
<path d="M-174.359 289.55L280.186 -159.428" stroke="#1C355E" stroke-width="0.323516" stroke-miterlimit="10"/>
<path d="M-163.909 299.874L290.635 -149.155" stroke="#1C355E" stroke-width="0.323516" stroke-miterlimit="10"/>
<path d="M-153.458 310.198L301.035 -138.832" stroke="#1C355E" stroke-width="0.323516" stroke-miterlimit="10"/>
<path d="M-143.008 320.521L311.485 -128.508" stroke="#1C355E" stroke-width="0.323516" stroke-miterlimit="10"/>
<path d="M-132.557 330.845L321.936 -118.184" stroke="#1C355E" stroke-width="0.323516" stroke-miterlimit="10"/>
<path d="M-122.107 341.169L332.386 -107.861" stroke="#1C355E" stroke-width="0.323516" stroke-miterlimit="10"/>
<path d="M-111.656 351.441L342.837 -97.5371" stroke="#1C355E" stroke-width="0.323516" stroke-miterlimit="10"/>
<path d="M-101.206 361.766L353.288 -87.2134" stroke="#1C355E" stroke-width="0.323516" stroke-miterlimit="10"/>
<path d="M-90.7554 372.089L363.738 -76.8899" stroke="#1C355E" stroke-width="0.323516" stroke-miterlimit="10"/>
<path d="M-80.3044 382.413L374.189 -66.5652" stroke="#1C355E" stroke-width="0.323516" stroke-miterlimit="10"/>
<path d="M-69.8547 392.737L384.638 -56.2417" stroke="#1C355E" stroke-width="0.323516" stroke-miterlimit="10"/>
<path d="M-59.4038 403.06L395.089 -45.9185" stroke="#1C355E" stroke-width="0.323516" stroke-miterlimit="10"/>
<path d="M-48.9534 413.384L405.54 -35.595" stroke="#1C355E" stroke-width="0.323516" stroke-miterlimit="10"/>
<path d="M-38.5029 423.707L415.99 -25.2712" stroke="#1C355E" stroke-width="0.323516" stroke-miterlimit="10"/>
<path d="M-28.0527 434.031L426.44 -14.9473" stroke="#1C355E" stroke-width="0.323516" stroke-miterlimit="10"/>
<path d="M-17.6018 444.354L436.891 -4.62451" stroke="#1C355E" stroke-width="0.323516" stroke-miterlimit="10"/>
<path d="M-7.1521 454.678L447.341 5.69946" stroke="#1C355E" stroke-width="0.323516" stroke-miterlimit="10"/>
<path d="M3.29883 465.002L457.792 16.0234" stroke="#1C355E" stroke-width="0.323516" stroke-miterlimit="10"/>
<path d="M13.7493 475.325L468.242 26.3469" stroke="#1C355E" stroke-width="0.323516" stroke-miterlimit="10"/>
<path d="M24.1997 485.649L478.693 36.6707" stroke="#1C355E" stroke-width="0.323516" stroke-miterlimit="10"/>
<path d="M34.6504 495.973L489.144 46.9949" stroke="#1C355E" stroke-width="0.323516" stroke-miterlimit="10"/>
<path d="M45.1008 506.297L499.594 57.3186" stroke="#1C355E" stroke-width="0.323516" stroke-miterlimit="10"/>
<path d="M55.5513 516.62L510.044 67.6416" stroke="#1C355E" stroke-width="0.323516" stroke-miterlimit="10"/>
<path d="M66.0015 526.944L520.495 77.9658" stroke="#1C355E" stroke-width="0.323516" stroke-miterlimit="10"/>
<path d="M76.4014 537.267L530.946 88.2888" stroke="#1C355E" stroke-width="0.323516" stroke-miterlimit="10"/>
<path d="M86.8516 547.591L541.396 98.6125" stroke="#1C355E" stroke-width="0.323516" stroke-miterlimit="10"/>
<path d="M97.3018 557.915L551.846 108.937" stroke="#1C355E" stroke-width="0.323516" stroke-miterlimit="10"/>
<path d="M107.752 568.239L562.297 119.26" stroke="#1C355E" stroke-width="0.323516" stroke-miterlimit="10"/>
<path d="M118.203 578.563L572.748 129.534" stroke="#1C355E" stroke-width="0.323516" stroke-miterlimit="10"/>
<path d="M128.653 588.886L583.146 139.857" stroke="#1C355E" stroke-width="0.323516" stroke-miterlimit="10"/>
<path d="M139.104 599.209L593.597 150.181" stroke="#1C355E" stroke-width="0.323516" stroke-miterlimit="10"/>
<path d="M149.554 609.534L604.047 160.505" stroke="#1C355E" stroke-width="0.323516" stroke-miterlimit="10"/>
<path d="M160.004 619.857L614.498 170.828" stroke="#1C355E" stroke-width="0.323516" stroke-miterlimit="10"/>
<path d="M170.455 630.13L624.948 181.152" stroke="#1C355E" stroke-width="0.323516" stroke-miterlimit="10"/>
<path d="M180.906 640.454L635.399 191.476" stroke="#1C355E" stroke-width="0.323516" stroke-miterlimit="10"/>
<path d="M191.356 650.777L645.849 201.798" stroke="#1C355E" stroke-width="0.323516" stroke-miterlimit="10"/>
<path d="M201.807 661.101L656.3 212.123" stroke="#1C355E" stroke-width="0.323516" stroke-miterlimit="10"/>
<path d="M212.257 671.424L666.75 222.446" stroke="#1C355E" stroke-width="0.323516" stroke-miterlimit="10"/>
<path d="M222.707 681.748L677.2 232.77" stroke="#1C355E" stroke-width="0.323516" stroke-miterlimit="10"/>
<path d="M233.158 692.071L687.651 243.093" stroke="#1C355E" stroke-width="0.323516" stroke-miterlimit="10"/>
<path d="M243.608 702.395L698.102 253.417" stroke="#1C355E" stroke-width="0.323516" stroke-miterlimit="10"/>
<path d="M254.059 712.719L708.552 263.741" stroke="#1C355E" stroke-width="0.323516" stroke-miterlimit="10"/>
<path d="M264.509 723.043L719.003 274.064" stroke="#1C355E" stroke-width="0.323516" stroke-miterlimit="10"/>
<path d="M274.96 733.366L729.453 284.388" stroke="#1C355E" stroke-width="0.323516" stroke-miterlimit="10"/>
<path d="M97.3018 557.915L551.846 108.937" stroke="#1C355E" stroke-width="0.323516" stroke-miterlimit="10"/>
<path d="M93.562 -68.8433L603.33 434.79" stroke="#1C355E" stroke-width="0.323516" stroke-miterlimit="10"/>
<path d="M83.1118 -58.5195L592.88 445.062" stroke="#1C355E" stroke-width="0.323516" stroke-miterlimit="10"/>
<path d="M104.013 -79.1665L613.781 424.467" stroke="#1C355E" stroke-width="0.323516" stroke-miterlimit="10"/>
<path d="M114.463 -89.4902L624.231 414.143" stroke="#1C355E" stroke-width="0.323516" stroke-miterlimit="10"/>
<path d="M124.914 -99.8142L634.682 403.819" stroke="#1C355E" stroke-width="0.323516" stroke-miterlimit="10"/>
<path d="M135.364 -110.138L645.132 393.495" stroke="#1C355E" stroke-width="0.323516" stroke-miterlimit="10"/>
<path d="M145.815 -120.461L655.583 383.172" stroke="#1C355E" stroke-width="0.323516" stroke-miterlimit="10"/>
<path d="M156.265 -130.785L666.033 372.848" stroke="#1C355E" stroke-width="0.323516" stroke-miterlimit="10"/>
<path d="M166.664 -141.109L676.484 362.524" stroke="#1C355E" stroke-width="0.323516" stroke-miterlimit="10"/>
<path d="M177.115 -151.433L686.934 352.2" stroke="#1C355E" stroke-width="0.323516" stroke-miterlimit="10"/>
<path d="M187.566 -161.705L697.385 341.877" stroke="#1C355E" stroke-width="0.323516" stroke-miterlimit="10"/>
<path d="M198.016 -172.029L707.835 331.553" stroke="#1C355E" stroke-width="0.323516" stroke-miterlimit="10"/>
<path d="M208.467 -182.353L718.287 321.23" stroke="#1C355E" stroke-width="0.323516" stroke-miterlimit="10"/>
<path d="M218.917 -192.677L728.736 310.906" stroke="#1C355E" stroke-width="0.323516" stroke-miterlimit="10"/>
<path d="M229.368 -203L739.187 300.583" stroke="#1C355E" stroke-width="0.323516" stroke-miterlimit="10"/>
<path d="M72.6616 -48.196L582.43 455.386" stroke="#1C355E" stroke-width="0.323516" stroke-miterlimit="10"/>
<path d="M62.2104 -37.8718L571.979 465.71" stroke="#1C355E" stroke-width="0.323516" stroke-miterlimit="10"/>
<path d="M51.7607 -27.5481L561.529 476.034" stroke="#1C355E" stroke-width="0.323516" stroke-miterlimit="10"/>
<path d="M41.3098 -17.2246L551.078 486.358" stroke="#1C355E" stroke-width="0.323516" stroke-miterlimit="10"/>
<path d="M30.8594 -6.90137L540.627 496.681" stroke="#1C355E" stroke-width="0.323516" stroke-miterlimit="10"/>
<path d="M20.4082 3.42236L530.176 507.005" stroke="#1C355E" stroke-width="0.323516" stroke-miterlimit="10"/>
<path d="M9.95898 13.7466L519.727 517.329" stroke="#1C355E" stroke-width="0.323516" stroke-miterlimit="10"/>
<path d="M-0.492188 24.0696L509.276 527.652" stroke="#1C355E" stroke-width="0.323516" stroke-miterlimit="10"/>
<path d="M-10.9426 34.3933L498.825 537.976" stroke="#1C355E" stroke-width="0.323516" stroke-miterlimit="10"/>
<path d="M-21.3931 44.7173L488.375 548.3" stroke="#1C355E" stroke-width="0.323516" stroke-miterlimit="10"/>
<path d="M-31.844 55.0408L477.975 558.623" stroke="#1C355E" stroke-width="0.323516" stroke-miterlimit="10"/>
<path d="M-42.2944 65.3645L467.525 568.947" stroke="#1C355E" stroke-width="0.323516" stroke-miterlimit="10"/>
<path d="M-52.7446 75.6885L457.075 579.271" stroke="#1C355E" stroke-width="0.323516" stroke-miterlimit="10"/>
<path d="M-63.1948 86.012L446.624 589.594" stroke="#1C355E" stroke-width="0.323516" stroke-miterlimit="10"/>
<path d="M-73.646 96.3354L436.173 599.918" stroke="#1C355E" stroke-width="0.323516" stroke-miterlimit="10"/>
<path d="M-84.0957 106.659L425.724 610.242" stroke="#1C355E" stroke-width="0.323516" stroke-miterlimit="10"/>
<path d="M-94.5466 116.984L415.273 620.566" stroke="#1C355E" stroke-width="0.323516" stroke-miterlimit="10"/>
<path d="M-104.997 127.256L404.822 630.889" stroke="#1C355E" stroke-width="0.323516" stroke-miterlimit="10"/>
<path d="M-115.447 137.579L394.372 641.212" stroke="#1C355E" stroke-width="0.323516" stroke-miterlimit="10"/>
<path d="M-125.846 147.903L383.922 651.536" stroke="#1C355E" stroke-width="0.323516" stroke-miterlimit="10"/>
<path d="M-136.297 158.227L373.471 661.86" stroke="#1C355E" stroke-width="0.323516" stroke-miterlimit="10"/>
<path d="M-146.748 168.55L363.02 672.183" stroke="#1C355E" stroke-width="0.323516" stroke-miterlimit="10"/>
<path d="M-157.198 178.874L352.57 682.507" stroke="#1C355E" stroke-width="0.323516" stroke-miterlimit="10"/>
<path d="M-167.648 189.198L342.12 692.831" stroke="#1C355E" stroke-width="0.323516" stroke-miterlimit="10"/>
<path d="M-178.099 199.522L331.669 703.155" stroke="#1C355E" stroke-width="0.323516" stroke-miterlimit="10"/>
<path d="M-188.549 209.845L321.219 713.478" stroke="#1C355E" stroke-width="0.323516" stroke-miterlimit="10"/>
<path d="M-199 220.169L310.768 723.751" stroke="#1C355E" stroke-width="0.323516" stroke-miterlimit="10"/>
</g>
</svg>
