<?xml version="1.0" encoding="utf-8"?>
<!-- Generator: Adobe Illustrator 24.1.1, SVG Export Plug-In . SVG Version: 6.00 Build 0)  -->
<svg version="1.1" id="Layer_1" xmlns="http://www.w3.org/2000/svg" xmlns:xlink="http://www.w3.org/1999/xlink" x="0px" y="0px"
	 viewBox="0 0 68 60" style="enable-background:new 0 0 68 60;" xml:space="preserve">
<style type="text/css">
	.st0{fill:#FFFFFF;}
</style>
<g>
	<path class="st0" d="M6.4,32.3l-2-3.2v-2.3l2-3.3h1.4l2,3.3V29l-2,3.3H6.4z M8.3,28.5v-0.6L7,25.8H6.6l-0.9,1.6V28L7,30.1h0.4
		L8.3,28.5z"/>
	<path class="st0" d="M9.5,21.8l-1.4,1.6l-0.8-1.4l4.2-4.8l0.9,1.4l-1.4,1.6l2.5,4.1l-1.3,1.5L9.5,21.8z"/>
	<path class="st0" d="M16.4,19.5l-2-3.3l0.3-1.9l3.2-2.6l0.8,1.4L16.4,15v0.5l1.3,2.1h0.5l2.3-1.9l0.9,1.4l-3.2,2.7L16.4,19.5z"/>
	<path class="st0" d="M18.8,11.1l4.3-2.6l1.4,0.3l0.7,1.2L25,10.8l1.2,0.3l0.8,1.4l-0.3,1.4l-4.5,2.7L18.8,11.1z M23.4,11.2V11
		l-0.3-0.5h-0.3l-1.5,1l0.5,0.8L23.4,11.2z M24.9,13.2v-0.3l-0.3-0.5h-0.3l-1.7,1.1l0.6,0.9L24.9,13.2z"/>
	<path class="st0" d="M27.8,11.7l-2-3.3l0.5-1.6l3.6-1.6l1.9,0.6l2,3.3l-0.5,1.6l-3.5,1.6L27.8,11.7z M31.3,9.8l0.1-0.5l-1.3-2.1
		l-0.5-0.2l-1.6,0.7l-0.1,0.5l1.3,2.1l0.6,0.2L31.3,9.8z"/>
	<path class="st0" d="M32.1,4.3L34,3.8l2.3,3.6h0.2l-0.6-4l2.7-0.7l3.4,5.5l-1.9,0.5l-2.3-3.6h-0.2l0.7,4l-2.7,0.7L32.1,4.3z"/>
	<path class="st0" d="M42.5,7.5L43,5L39.9,3l-0.3-0.5l2-0.2l2,1.4h0.2l0.1-1.6h1.9L46,2.6l-0.4,2.3L49,7.2l0.3,0.5l-2,0.1L45,6.1
		h-0.2v1.8L42.9,8L42.5,7.5z"/>
	<path class="st0" d="M18.3,50.4C11.1,50.4,5.1,48,2,43.1C-4.1,33.2,4,17.2,20,7.4c16-9.8,34-9.8,40,0l6,9.6l-0.3,0.2l-6-9.6
		c-6-9.6-23.7-9.6-39.5,0.2C4.4,17.5-3.6,33.2,2.3,42.8c5.9,9.6,23.7,9.6,39.5-0.2C54.6,34.8,62.6,22.6,61.4,13h0.4
		c1.3,9.8-6.9,22.2-19.8,30.2C34.9,47.6,26.7,50.1,18.3,50.4L18.3,50.4z"/>
	<path class="st0" d="M24.2,60C17,60,11,57.5,8,52.6L2,43.1l0.3-0.2l6,9.6c6,9.6,23.7,9.6,39.5-0.2c15.8-9.7,23.8-25.5,17.8-35.1
		c-6-9.6-23.7-9.6-39.5,0.2C13.3,25.1,5.2,37.5,6.5,47.1H6.1c-1.3-9.8,6.9-22.2,19.8-30.2c16.1-9.8,33.9-9.8,40,0
		C72,26.8,64,42.8,48,52.6C40.9,57.1,32.7,59.7,24.2,60L24.2,60z"/>
	<path class="st0" d="M8.3,49.9l1.9,0.7l1.2,2l0.7,0.3l0.1-1.5l1.9,0.7l0.3,0.5L14.1,54l3.3,3.1l0.3,0.5l-1.9-0.7L13,54.2L12.3,54
		l1.3,2.1l-1.9-0.7L8.3,49.9z"/>
	<path class="st0" d="M17.1,56H18v-0.2l-2-3.7l5.3,0.2l3.4,5.5h-2l-2.5-4.2h-1.5l1.7,3.2l-0.6,1h-1.8L17.1,56z"/>
	<path class="st0" d="M22.9,52.3l2-0.4l1.2,2l0.8-0.2l-0.6-0.9l0.6-1.4l3.3-0.7l2,0.8l2,3.3l-0.6,1.4l-3.3,0.7l-2-0.8l-0.6-0.9
		L27,55.3l1.3,2l-2,0.4L22.9,52.3z M31.8,55.1l0.2-0.4l-1.4-2.1l-0.5-0.2l-1.3,0.3L28.6,53l1.3,2.1l0.5,0.3L31.8,55.1z"/>
	<path class="st0" d="M38.6,52.7l-2.3,1l-1.9-0.6L32.5,50l1.8-0.8l1.5,2.4l0.4,0.1l1.4-0.6L36,48.6l1.8-0.8l3.4,5.5L39.4,54
		L38.6,52.7z"/>
	<path class="st0" d="M39.2,47.2l4.8-2.7l0.8,1.4l-3.1,1.7l0.4,0.7l2.3-1.3l0.8,1.2l-2.3,1.3l0.5,0.8l3.1-1.8l0.8,1.4l-4.9,2.8
		L39.2,47.2z"/>
	<path class="st0" d="M44.9,43.8l4-3l1.3,0.3l0.7,1.2l-0.2,0.8l1.2,0.2l0.8,1.3l-0.3,1.6l-4.2,3.1L44.9,43.8z M49.3,43.7v-0.3
		L49,42.9h-0.2L47.3,44l0.5,0.8L49.3,43.7z M50.7,45.6v-0.4l-0.3-0.5h-0.3L48.5,46l0.6,0.9L50.7,45.6z"/>
	<path class="st0" d="M53.4,43.8l-2-3.2l0.3-2l2.9-2.9l0.9,1.4l-2.3,2.2v0.6l1.3,2.1h0.5l2.3-2.2L58,41L55,44L53.4,43.8z"/>
	<path class="st0" d="M55.3,34.8l1.2-1.6l1.2,2l0.4-0.6l-0.3-3.2l1.2-1.6l0.3,0.5l0.4,3.6l2.7,0.8l0.3,0.5l-1.2,1.6L59,36l-0.4,0.6
		l1.3,2.1l-1.2,1.6L55.3,34.8z"/>
	<path class="st0" d="M62.1,33.6l-2-3.2l-0.1-2.3l1.6-3.5h1.2l2,3.3l0.1,2.3l-1.6,3.5L62.1,33.6z M63.7,29.7v-0.6L62.4,27h-0.4
		l-0.7,1.6v0.6l1.3,2.1h0.3L63.7,29.7z"/>
	<path class="st0" d="M62.5,22.2l0.8-5.4l0.8,1.4l-0.5,3.5l0.4,0.7l0.4-2.5l0.8,1.2l-0.4,2.5l0.5,0.8l0.5-3.5l0.8,1.4l-0.8,5.5
		L62.5,22.2z"/>
	<path class="st0" d="M25.2,29.3c-0.6-1.2-0.9-2.6-0.8-4c0.1-1.4,0.5-2.7,1.2-3.9c0.7-1.2,1.7-2.2,2.9-2.8c1.2-0.7,2.6-1.1,4-1.1
		c1.4,0,2.8,0.3,4,1c1.2,0.7,2.3,1.6,3,2.8c0.8,1.2,1.2,2.5,1.3,3.9c0.1,1.4-0.2,2.8-0.7,4l-5.5-4.4c-0.3-0.3-0.8-0.4-1.2-0.4
		c-0.5,0-1,0.2-1.4,0.6c0,0-3.8,3.9-3.8,3.9c-0.3-0.2-0.7-0.3-1.1-0.4c-0.2,0-0.5,0-0.7,0.1c-0.2,0.1-0.4,0.2-0.6,0.4L25.2,29.3z"/>
	<path class="st0" d="M45.5,35l-11.5-8.9c-0.3-0.2-0.6-0.3-0.9-0.3c-0.3,0-0.7,0.2-0.9,0.4c0,0-3.3,3.3-3.4,3.4
		c1.4,0.8,4.7,2.3,3.8,4.4c-0.6,1.3-2.3,1.8-2.3,3.3s1.9,2.5,3.5,2.6c4-0.1,8-1.2,11.5-3.3c0.1-0.1,0.3-0.2,0.3-0.3s0.1-0.3,0.2-0.4
		c0-0.2,0-0.3,0-0.5C45.7,35.2,45.7,35.1,45.5,35L45.5,35z M31,33.3c0.6-1-3.2-3.3-3.5-3.5c-0.3-0.1-0.6-0.2-0.9-0.1
		S26,29.7,25.8,30l-5.4,4.8c-0.1,0.1-0.2,0.2-0.3,0.4c-0.1,0.1-0.1,0.3-0.1,0.4c0,0.2,0,0.3,0.1,0.4c0.1,0.1,0.2,0.3,0.3,0.4
		c1.6,0.9,3.2,1.7,5,2.3C24.7,35.7,30.2,34.6,31,33.3z"/>
</g>
</svg>
