<svg width="105" height="89" viewBox="0 0 105 89" fill="none" xmlns="http://www.w3.org/2000/svg">
<path d="M9.84824 47.9232L6.73083 43.1106V39.7214L9.77739 34.8409H11.8675L14.9849 39.6875V43.0767L11.9738 47.9232H9.84824ZM12.824 42.331V41.416L10.8047 38.2979H10.2379L8.85634 40.6703V41.5854L10.8756 44.7035H11.4778L12.824 42.331Z" fill="#00C882"/>
<path d="M14.7014 32.367L12.5405 34.7733L11.2297 32.7398L17.7125 25.6903L19.0587 27.7238L16.8623 30.1301L20.7945 36.2307L18.8107 38.4336L14.7014 32.367Z" fill="#00C882"/>
<path d="M25.3999 28.91L22.2825 24.0635L22.8138 21.1827L27.7734 17.3529L29.0841 19.4203L25.3645 22.2672V23.0806L27.3837 26.1987H28.1276L31.6701 23.3518L33.0163 25.3853L28.0568 29.3167L25.3999 28.91Z" fill="#00C882"/>
<path d="M29.1196 16.4039L35.7441 12.5742L37.8342 13.0486L38.9324 14.7771L38.649 15.9633L40.5265 16.37L41.8018 18.4036L41.2704 20.5387L34.398 24.538L29.1196 16.4039ZM36.2046 16.6073V16.2345L35.7441 15.4889H35.3544L33.0164 16.9462L33.7957 18.1324L36.2046 16.6073ZM38.4719 19.522V19.0136L37.9759 18.2341H37.48L34.7876 19.7931L35.6733 21.1827L38.4719 19.522Z" fill="#00C882"/>
<path d="M42.8999 17.4207L39.7471 12.5742L40.5618 10.1679L46.0527 7.86322L48.9576 8.71052L52.0042 13.557L51.2248 15.9634L45.8048 18.268L42.8999 17.4207ZM48.4262 14.5738L48.6388 13.8621L46.6195 10.7779L45.8402 10.5068L43.3604 11.5574L43.1479 12.2353L45.1317 15.3533L46.0527 15.5906L48.4262 14.5738Z" fill="#00C882"/>
<path d="M49.5952 6.40588L52.5001 5.69415L56.0426 11.0152H56.326L55.3695 5.08409L59.5142 4.03345L64.7572 12.1675L61.8877 12.8792L58.3452 7.5582H58.0618L59.1246 13.5571L54.9444 14.6077L49.5952 6.40588Z" fill="#00C882"/>
<path d="M65.7137 11.1506L66.3868 7.45643L61.6044 4.37227L61.1793 3.69443L64.1905 3.3894L67.237 5.52459H67.5204L67.6975 3.15216H70.6024L71.0629 3.83L70.4607 7.21918L75.7036 10.6084L76.1287 11.2862L73.1176 11.4896L69.5751 9.01545H69.2917V11.7268L66.3514 11.8963L65.7137 11.1506Z" fill="#00C882"/>
<path d="M28.3419 74.7652C17.1475 74.7652 7.90157 71.1388 3.19003 63.8521C-6.23304 49.2786 6.20117 25.5543 30.857 10.9469C55.5129 -3.66051 83.2862 -3.66051 92.6738 10.9469L101.884 25.1814L101.353 25.4865L92.107 11.218C82.8965 -3.05046 55.5483 -2.94879 31.1759 11.4891C6.80339 25.9271 -5.52454 49.2447 3.54429 63.5131C12.6131 77.7816 40.103 77.6799 64.5109 63.2759C84.2781 51.5832 96.7477 33.4511 94.8348 19.2165H95.4724C97.4208 33.7561 84.8449 52.1594 64.8297 63.9876C53.9016 70.6543 41.2963 74.3776 28.3419 74.7652Z" fill="#1C355E"/>
<path d="M37.4798 89.0003C26.3208 89.0003 17.0395 85.34 12.3279 78.0872L3.15283 63.8526L3.68421 63.5137L12.8947 77.7482C22.1053 92.0506 49.4534 91.915 73.8259 77.511C98.1984 63.107 110.526 39.7555 101.316 25.4531C92.1053 11.1507 64.7217 11.2863 40.3492 25.6903C20.5466 37.2814 8.07692 55.583 10.0253 69.8853H9.38765C7.40384 55.3457 20.0152 36.9086 40.0304 25.0803C64.8279 10.4729 92.4241 10.4729 101.847 25.0803C111.27 39.6877 98.836 63.4459 74.1447 77.9516C63.2028 84.7602 50.5251 88.5806 37.4798 89.0003Z" fill="#1C355E"/>
<path d="M12.8949 73.9523L15.7998 74.969L17.7127 77.9515L18.74 78.3243L18.9526 76.1552L21.822 77.172L22.2825 77.8498L21.7866 80.1545L26.8878 84.7299L27.3129 85.4077L24.3372 84.3571L20.157 80.3917L19.0589 80.0189L21.0427 83.1031L18.1732 82.0863L12.8949 73.9523Z" fill="#00C882"/>
<path d="M26.498 83.1031H27.8796V82.8658L24.7976 77.3076L33.0517 77.6126L38.2946 85.7466H35.2126L31.3158 79.5444H29.0486L31.6701 84.2215L30.7845 85.645H27.9859L26.498 83.1031Z" fill="#00C882"/>
<path d="M35.4252 77.5449L38.4363 76.9687L40.3493 79.9173L41.6246 79.6801L40.7744 78.3583L41.6954 76.2909L46.7966 75.2741L49.8432 76.4942L52.9252 81.3408L52.0041 83.4082L46.9029 84.4249L43.8564 83.1709L42.9707 81.8152L41.6954 82.0864L43.6438 85.0689L40.6327 85.6789L35.4252 77.5449ZM49.1347 81.6797L49.4181 81.1035L47.328 77.9516L46.5132 77.6127L44.494 77.9855L44.246 78.5616L46.3007 81.6797L47.1155 82.0525L49.1347 81.6797Z" fill="#00C882"/>
<path d="M59.6206 78.1209L56.0781 79.5783L53.1378 78.731L50.1975 74.1895L53.0315 73.0711L55.3696 76.6636L55.9718 76.8331L58.2036 75.9519L55.6884 72.0204L58.5224 70.902L63.7653 79.036L60.9313 80.1544L59.6206 78.1209Z" fill="#00C882"/>
<path d="M60.5063 69.987L67.9102 65.9539L69.2209 68.0213L64.5094 70.5632L65.1825 71.6138L68.725 69.7498L69.894 71.5799L66.3515 73.444L67.0954 74.5963L71.9486 71.9866L73.2594 74.0201L65.7493 78.121L60.5063 69.987Z" fill="#00C882"/>
<path d="M69.4333 65.005L75.6327 60.5651L77.6166 60.9379L78.7147 62.6664L78.4668 63.9204L80.2734 64.2254L81.5842 66.2251L81.1236 68.5297L74.6763 73.139L69.4333 65.005ZM76.1641 64.7677V64.361L75.6682 63.6154H75.3493L73.0821 65.2422L73.8615 66.4284L76.1641 64.7677ZM78.3959 67.6485V67.1062L77.9354 66.3267H77.4394L74.9242 68.1569L75.8099 69.5465L78.3959 67.6485Z" fill="#00C882"/>
<path d="M82.5051 64.9371L79.3523 60.1244L79.742 57.108L84.2764 52.8038L85.6225 54.8373L82.08 58.057V58.9043L84.0638 62.0224H84.7723L88.3148 58.8026L89.6256 60.87L85.0203 65.2421L82.5051 64.9371Z" fill="#00C882"/>
<path d="M85.4099 51.6175L87.252 49.279L89.1295 52.1937L89.8026 51.3464L89.2712 46.6693L91.0779 44.3307L91.5385 45.0425L92.1053 50.3635L96.2146 51.5836L96.6397 52.2614L94.7267 54.7017L91.1842 53.4477L90.5111 54.3288L92.4949 57.3791L90.6528 59.7515L85.4099 51.6175Z" fill="#00C882"/>
<path d="M95.9313 49.8889L92.7785 45.0762L92.5659 41.6871L95.0811 36.5694H96.9941L100.147 41.4159L100.359 44.8051L97.8443 49.9567L95.9313 49.8889ZM98.3402 44.0595V43.1105L96.321 39.9925H95.6479L94.5143 42.331V43.28L96.5335 46.398H97.0649L98.3402 44.0595Z" fill="#00C882"/>
<path d="M96.5336 32.8754L97.7734 24.8091L99.0842 26.8765L98.3048 31.9942L98.9779 33.0449L99.5801 29.2829L100.749 31.113L100.147 34.875L100.926 36.0273L101.741 30.7741L103.052 32.8415L101.776 40.9756L96.5336 32.8754Z" fill="#00C882"/>
<path d="M38.9678 43.3818C38.0163 41.5396 37.5681 39.4969 37.6648 37.4442C37.7614 35.3914 38.3999 33.3956 39.5207 31.6427C40.6414 29.8899 42.208 28.4371 44.0741 27.42C45.9403 26.4028 48.0453 25.8544 50.1929 25.8259C52.3404 25.7973 54.4605 26.2896 56.3555 27.2568C58.2505 28.224 59.8585 29.6345 61.0298 31.3569C62.201 33.0793 62.8972 35.0574 63.0534 37.1068C63.2096 39.1562 62.8208 41.21 61.9232 43.0767L53.4212 36.6034C52.8881 36.1982 52.2245 35.9826 51.5437 35.9933C50.7243 35.992 49.9365 36.2959 49.3473 36.8406C49.3473 36.8406 43.5022 42.6023 43.4668 42.6023C42.9622 42.3025 42.3927 42.117 41.8018 42.06C41.4219 42.0497 41.0439 42.1134 40.6906 42.2475C40.3374 42.3815 40.0163 42.5829 39.7471 42.8395L38.9678 43.3818Z" fill="#1C355E"/>
<path d="M70.3543 51.9225L52.6418 38.7047C52.2167 38.4113 51.6986 38.2678 51.1754 38.2987C50.6522 38.3296 50.1564 38.5329 49.7723 38.8742C49.7723 38.8742 44.7066 43.7546 44.5294 43.8563C46.7258 44.9747 51.8624 47.2454 50.41 50.4313C49.4889 52.4309 46.8675 53.1087 46.8675 55.2778C46.8675 57.4469 49.8078 58.972 52.2875 59.1076C58.5271 58.9341 64.6198 57.2554 70.0001 54.2272C70.2134 54.1244 70.3976 53.9741 70.5374 53.7888C70.6771 53.6036 70.7682 53.3889 70.803 53.1629C70.8377 52.9369 70.8151 52.7062 70.737 52.4903C70.6589 52.2744 70.5277 52.0796 70.3543 51.9225ZM47.8948 49.3128C48.8867 47.7877 43.0061 44.3646 42.5102 44.0596C42.0863 43.8558 41.607 43.7823 41.1378 43.849C40.6686 43.9158 40.2323 44.1195 39.8887 44.4324L31.5638 51.6175C31.3783 51.7638 31.2289 51.9475 31.1263 52.1555C31.0238 52.3635 30.9706 52.5907 30.9706 52.8207C30.9706 53.0506 31.0238 53.2778 31.1263 53.4858C31.2289 53.6938 31.3783 53.8775 31.5638 54.0238C33.9831 55.4297 36.5622 56.5668 39.2511 57.413C38.1175 52.9732 46.6549 51.2447 47.8948 49.3128Z" fill="#1C355E"/>
</svg>
