<svg xmlns="http://www.w3.org/2000/svg" xmlns:xlink="http://www.w3.org/1999/xlink">
    <symbol viewBox="0 0 48.5 57" id="sets" xmlns="http://www.w3.org/2000/svg">
      <polygon points="48.5,56 46.5,56 46.5,17.3 38.5,4.8 38.5,2 33.5,2 33.5,4.8 24.8,17.6 23.2,16.4 31.5,4.2 31.5,0 40.5,0 40.5,4.2
    48.5,16.7 "/>
      <path d="M37.5,57h-23V18.5H2V56H0V16.5h37.5V57z M16.5,55h19V18.5h-19V55z"/>
    </symbol>

    <symbol viewBox="0 0 45 61" id="milk" xmlns="http://www.w3.org/2000/svg">
        <path d="M45,61H20.6V19.6H2V60H0V18.6h1l-0.7-0.7l10.9-11V0h22.6v6.9L45,18.2V61z M22.6,59H43V19L32.8,8.7L22.6,19V59z M3.4,17.6
		h17.7l9.2-9.3H12.6L3.4,17.6z M13.2,6.3h18.6V2H13.2V6.3z"/>
    </symbol>

    <symbol viewBox="0 0 54 41.9" id="cheese" xmlns="http://www.w3.org/2000/svg">
        <path d="M2,41.9H0V19.4h0.8l-0.2-0.9L44,0l0.4,0.1C49,1.8,54,8.6,54,19.6v1L2,20.4V41.9z M5.9,18.4L52,18.6
	c-0.3-9.1-4.2-14.8-8-16.4L5.9,18.4z"/>
        <path d="M13,34.9c-2.2,0-4-1.8-4-4s1.8-4,4-4s4,1.8,4,4S15.2,34.9,13,34.9z M13,28.9c-1.1,0-2,0.9-2,2s0.9,2,2,2s2-0.9,2-2
	S14.1,28.9,13,28.9z"/>
        <path d="M44,30.9c-2.2,0-4-1.8-4-4s1.8-4,4-4s4,1.8,4,4S46.2,30.9,44,30.9z M44,24.9c-1.1,0-2,0.9-2,2s0.9,2,2,2s2-0.9,2-2
	S45.1,24.9,44,24.9z"/>
        <path d="M20,40.9c-1.7,0-3-1.3-3-3s1.3-3,3-3s3,1.3,3,3S21.7,40.9,20,40.9z M20,36.9c-0.6,0-1,0.4-1,1s0.4,1,1,1s1-0.4,1-1
	S20.6,36.9,20,36.9z"/>
        <rect x="52" y="19.9" width="2" height="22"/>
    </symbol>

    <symbol viewBox="0 0 54 41.9" id="chicken" xmlns="http://www.w3.org/2000/svg">
        <g>
            <path d="M64,33.2C61.5,23,51.3,3.9,30.7,3.9C10.2,3.9,2.9,22.9,2,33l-2-0.2C1,22.1,8.7,1.9,30.7,1.9C52.6,1.9,63.3,22,66,32.7
		L64,33.2z"/>
        </g>
        <g>
            <path d="M19.7,34.4c-3.1,0-6.1-0.7-7.9-2.2c-1.7-1.5-1.9-2.9-1.7-3.8c0.3-1.8,2-3.2,3.5-3.9l0.3-0.1l0.3,0c1.9,0.3,3.9,0.6,5.3,0.8
		c-0.2-0.4-0.5-0.8-0.7-1.1c-2.3-3.7-4-6.7-3.2-8.6c0.4-1.1,2-1.8,4.8-2.1c3.1-0.4,9.7-0.3,10.9,1.5c0.3,0.4,0.4,1,0.1,1.5
		c-0.8,1.6-3.5,2.1-6.5,2.6c0,0-0.1,0-0.1,0c2,2.5,6.1,7.9,5.2,11.2c-0.5,1.9-2.8,2.9-4.6,3.4C23.6,34.1,21.7,34.4,19.7,34.4z
		 M14.1,26.4c-1,0.5-2,1.3-2.1,2.2c-0.1,0.6,0.3,1.3,1.1,2l0,0c2.3,2,7.8,2.2,11.6,1.1c2.2-0.6,3.1-1.5,3.3-2.1
		c0.8-2.7-4.7-9.5-5.7-10.5l-0.4-0.4L22,18c0.2-0.7,0.9-0.8,2.5-1.1c1.1-0.2,3.6-0.5,4.6-1.1c-1.5-0.5-5.5-0.9-8.9-0.4
		c-2.1,0.3-2.8,0.7-2.9,0.9c-0.4,1.1,2,5.1,3.1,6.8c1.4,2.3,1.9,3,1.4,3.8l-0.3,0.5l-0.7,0C20,27.4,15.5,26.7,14.1,26.4z"/>
        </g>
        <g>
            <path fill="#fff" d="M40.5,20.9c0.5,5,7.5,7,11,4.5c2.8-2,7.5-11.2,9.5-15.5c0.8-1,1.9-2.8,1.5-2c-0.5,1,3,2.5,4-0.5
		c0.5-1.5,0-3.5-1-4c-1.3-0.6-2-0.3-2.5,0.5c2.6-4.3-3.5-3-4.5-1.5c-0.6,0.8-0.7,3.2,0.5,3c1.2-0.2-2.5,2-2.5,2
		C51,10.2,40.1,16.9,40.5,20.9z"/>
            <path d="M47.8,27.5c-1.3,0-2.7-0.3-3.9-0.8c-2.5-1.1-4.1-3.2-4.3-5.6C38.9,15.5,54.3,7.4,56,6.5c0.5-0.3,1-0.6,1.4-0.9
		c-0.6-1-0.4-2.9,0.2-3.8c1-1.4,4.4-2.5,6-1.4c0.3,0.2,0.9,0.7,0.9,1.7c0.4,0,0.8,0.2,1.3,0.4c1.6,0.8,2.1,3.4,1.5,5.2
		c-0.6,1.9-1.9,2.3-2.7,2.4c-0.8,0.1-1.7-0.1-2.4-0.5c-0.2,0.3-0.4,0.5-0.6,0.8c-0.7,1.4-6.2,13.3-9.8,15.8
		C50.9,27.1,49.4,27.5,47.8,27.5z M59.1,4.4c0.8,0,1,0.6,1,0.7c0.3,0.8-0.1,1.3-3.2,3.2c-7.9,4.1-15.8,9.8-15.5,12.5l0,0
		c0.2,1.7,1.3,3.2,3.2,4c2.1,1,4.7,0.9,6.2-0.2c2.4-1.7,6.8-10,9.2-15.1l0.1-0.2c0.4-0.5,0.9-1.2,1.2-1.6c0.4-0.5,0.9-1.3,1.7-0.8
		C63.3,7,63.7,7.3,63.5,8c0.2,0.1,0.6,0.2,1,0.2c0.5-0.1,0.8-0.4,1.1-1.1c0.4-1.2-0.1-2.6-0.5-2.8c-0.9-0.4-1-0.2-1.2,0.1
		c0,0,0,0,0,0l-1.7-1l0,0l0,0c0.6-1,0.5-1.3,0.5-1.3c0,0-0.3-0.2-1-0.1c-1.1,0.1-2.1,0.7-2.3,1C59.1,3.3,59,4,59.1,4.4z"/>
        </g>
    </symbol>

    <symbol viewBox="0 0 66 30.5" id="beef" xmlns="http://www.w3.org/2000/svg">
        <path d="M2.7,30.1c-0.2,0-0.4,0-0.5,0c-1.4,0-2.1-0.9-2.1-2.4c0-0.6,0.2-1.1,0.5-1.4c-0.3-0.4-0.5-0.9-0.5-1.3
	c-0.3-1.2,0.4-2.3,1.2-2.8c1.1-0.7,2-0.7,2.6-0.5c0.8,0.2,1.4,0.8,1.8,1.4c2.2-0.2,6.5-1.7,9.1-2.8l1.3-0.5l0.5,8.9h-1.8
	c-4.7-0.2-9.1,0-10,0.4C4,30,3.2,30.1,2.7,30.1z M4.6,29.1L4.6,29.1L4.6,29.1z M2.1,28.1c0.1,0,0.2,0,0.4,0c0.3,0,0.4,0.1,0.6-0.3
	c0.3-0.4,1-1.5,11.2-1.2l-0.2-4c-2.2,0.8-6.8,2.4-9.1,2.4H4.3l-0.3-0.6c-0.1-0.3-0.5-0.8-0.8-0.9c-0.1,0-0.4-0.1-0.9,0.2
	c0,0-0.4,0.3-0.3,0.6l0.1,0.2v0.2c0,0.1,0,0.4,0.8,0.4v2c0,0-0.8,0-0.8,0.4C2.1,27.9,2.1,28,2.1,28.1C2.1,28.1,2.1,28.1,2.1,28.1z"
        />
        <path d="M52.6,29.1c-1.2,0-2.4-0.7-3.3-2c-0.9-1.3-1.4-3-1.4-4.8c0-1.8,0.5-3.5,1.4-4.8c0.9-1.3,2-2,3.3-2s2.4,0.7,3.3,2
	c0.9,1.3,1.4,3,1.4,4.8c0,1.8-0.5,3.5-1.4,4.8C55,28.4,53.8,29.1,52.6,29.1z M52.6,17.5c-0.6,0-1.1,0.4-1.6,1.1
	c-0.6,0.9-1,2.3-1,3.7c0,1.4,0.4,2.7,1,3.7c1,1.4,2.3,1.4,3.3,0c0.6-0.9,1-2.3,1-3.7c0-1.4-0.4-2.7-1-3.7
	C53.7,17.9,53.1,17.5,52.6,17.5z"/>
        <path d="M39.9,29.2c-2.2-4.7-1-13.2,2.9-19.8c3.3-5.6,8.1-8.9,13.3-9.2c2.5-0.1,4.6,0.7,6.2,2.5c6,6.7,3.1,24.2,2.7,26.2l-2-0.3
	c1.2-6.8,2.1-19.6-2.3-24.5c-1.2-1.3-2.7-2-4.6-1.8c-6.2,0.3-10,5.3-11.7,8.2c-3.5,5.9-4.7,13.8-2.8,17.9L39.9,29.2z"/>
        <path d="M29.7,30.5c-0.6,0-1.3,0-1.9-0.1c-4.3-0.3-10.4-1.3-13-1.8L14,28.5v-6.5C14,18,24.5,11,26.6,9.7C38.7,0.4,51.8-0.6,57,0.2
	l-0.3,2c-4.9-0.7-17.3,0.3-28.9,9.1c-6.5,4.2-11.8,9-11.8,10.6v4.9c2.9,0.5,8.1,1.4,11.9,1.6c5.2,0.4,12.1-1,12.7-1.3l0.9,1.8
	C40.7,29.4,34.8,30.5,29.7,30.5z"/>
    </symbol>

    <symbol viewBox="0 0 60 51" id="vegetables" xmlns="http://www.w3.org/2000/svg">
        <path d="M28.5,2c2.9,0,5.5,2,6.3,4.8l0.9,3.2l2.4-2.3C39.3,6.6,40.8,6,42.5,6c3.6,0,6.5,2.9,6.5,6.5c0,0.4,0,0.8-0.1,1.2l-0.4,2.2
	l2.2,0.2c4.1,0.3,7.3,3.9,7.3,8c0,4.4-3.6,8-8,8c-1.5,0-3-0.4-4.3-1.3l-0.9-0.6l-1,0.4c-0.8,0.3-1.6,0.4-2.4,0.4
	c-1.2,0-2.4-0.3-3.4-1L37,29.4L35.9,30c-1,0.6-2.2,1-3.4,1c-2.1,0-4.1-1.1-5.4-2.8l-1.6-2.4l-1.6,2.4c-1.2,1.8-3.2,2.8-5.4,2.8
	c-2.1,0-4.1-1-5.3-2.7L12.3,27l-1.4,0.6C10.1,27.9,9.3,28,8.5,28C4.9,28,2,25.1,2,21.5c0-3.3,2.6-6.2,5.9-6.5l1.2-0.1l0.5-1.1
	c1-2.3,3.4-3.9,5.9-3.9c1.2,0,2.4,0.3,3.5,1l3.4,2.2L22,9.1c0-0.2,0-0.4,0-0.6C22,4.9,24.9,2,28.5,2 M28.5,0C23.8,0,20,3.8,20,8.5
	c0,0.3,0,0.5,0,0.8C18.7,8.5,17.2,8,15.5,8c-3.5,0-6.4,2.1-7.8,5c-4.3,0.4-7.7,4-7.7,8.5C0,26.2,3.8,30,8.5,30
	c1.1,0,2.1-0.2,3.1-0.6c1.5,2.2,4.1,3.6,6.9,3.6c2.9,0,5.5-1.5,7-3.7c1.5,2.2,4.1,3.7,7,3.7c1.7,0,3.2-0.5,4.5-1.3
	c1.3,0.8,2.8,1.3,4.5,1.3c1.1,0,2.1-0.2,3.1-0.6c1.6,1,3.4,1.6,5.4,1.6c5.5,0,10-4.5,10-10c0-5.2-4-9.5-9.1-10
	c0.1-0.5,0.1-1,0.1-1.5C51,7.8,47.2,4,42.5,4c-2.2,0-4.3,0.9-5.8,2.3C35.7,2.7,32.4,0,28.5,0L28.5,0z"/>
        <path d="M38,51h-2v-5c0-6.5,11-14,11.4-14.3l1.1,1.7C44.3,36.2,38,42,38,46V51z"/>
        <path d="M26,51h-2v-8.8c0-3.2-4-7.4-6.6-9.4l1.2-1.6c0.3,0.2,7.4,5.7,7.4,11V51z"/>
    </symbol>

    <symbol viewBox="0 0 68.4 43.5" id="grocery" xmlns="http://www.w3.org/2000/svg">
        <path d="M34.2,43.5c-9.8,0-18.6-1.4-24.2-2.6c-3.2-0.7-5.7-1.4-7.3-1.8c-0.4-0.1-0.8-0.2-1.2-0.3L0,38.3L34.2,0l34.2,38.3l-1.5,0.5
	c-0.3,0.1-0.7,0.2-1.2,0.3c-1.6,0.4-4.1,1.1-7.3,1.8C52.8,42.1,44,43.5,34.2,43.5z M3.6,37.2c1.6,0.4,3.9,1.1,6.8,1.7
	c5.5,1.2,14.2,2.6,23.8,2.6c9.6,0,18.3-1.4,23.8-2.6c2.9-0.6,5.3-1.2,6.8-1.7L34.2,3L3.6,37.2z"/>
        <circle cx="34.2" cy="9.5" r="1.5"/>
        <circle cx="29.2" cy="14.5" r="1.5"/>
        <circle cx="35.2" cy="15.5" r="1.5"/>
    </symbol>

    <symbol viewBox="0 0 88.9 30.8" id="bread" xmlns="http://www.w3.org/2000/svg">
        <g>
            <path d="M87,30.8C84.1,22.2,74.1,2,44.5,2C15.4,2,3.1,21.7,2,30.6l-2-0.3C1.2,20.9,14.1,0,44.5,0c31,0,41.4,21.1,44.4,30.2L87,30.8
		z"/>
        </g>
        <g>
            <path d="M13.2,25.6c-0.1,0-0.3,0-0.4-0.1C12.2,25.4,11,25,9,14.7l2-0.4c0.9,4.9,1.7,7.5,2.2,8.7c0.8-2,2.3-7.2,4.3-15.5l0-0.2
		l1.9,0.5l0,0.2c-2.8,11.6-4.2,16.3-5.2,17.3C13.9,25.5,13.6,25.6,13.2,25.6z"/>
        </g>
        <g>
            <path d="M29.4,24.1c-0.2,0-0.5,0-0.7-0.1C23.6,22.4,21.4,8.8,21,6.1l2-0.3c1,7.2,3.6,15.4,6.3,16.2c0.2,0,0.3,0,0.5-0.1
		C32,20.4,33.6,10.5,34,2L36,2c-0.1,3.1-1,18.7-5,21.5C30.5,23.9,30,24.1,29.4,24.1z"/>
        </g>
        <g>
            <path d="M48.1,23c-0.1,0-0.2,0-0.3,0C42.8,22.4,41.3,5.5,41,2.1l2-0.2C43.8,12,46.1,20.8,48.1,21c1.7,0.2,4.5-7.8,5.9-19.6l2,0.2
		C55.4,6.7,53.1,23,48.1,23z"/>
        </g>
        <g>
            <path d="M65,23.5c-0.1,0-0.2,0-0.3,0c-0.5,0-1.2-0.3-1.8-1.1C60.3,19.2,61,8,61.4,4.4l2,0.2c-0.7,5.5-0.7,14.4,1,16.6
		c0.2,0.3,0.4,0.3,0.5,0.3c0,0,0.1,0,0.1,0c2,0,4.2-6.4,5-12.5l2,0.3C71.6,11.6,69.8,23.5,65,23.5z"/>
        </g>
    </symbol>

    <symbol viewBox="0 0 50.2 50.2" id="freezing" xmlns="http://www.w3.org/2000/svg">
        <g>
            <rect x="6.7" y="2.9" width="2" height="40.5"/>
        </g>
        <g>
            <polygon points="7.8,6.2 3,1.4 4.4,0 7.8,3.3 11,0 12.4,1.4 	"/>
        </g>
        <g>
            <polygon points="7.8,13.9 0,6.1 1.4,4.7 7.8,11.1 14,4.7 15.4,6.1 	"/>
        </g>
        <g>
            <polygon points="7.7,22.8 0,15.1 1.4,13.7 7.7,20 13.8,13.7 15.2,15.1 	"/>
        </g>
        <g>
            <rect x="1.8" y="27.1" transform="matrix(0.7071 -0.7071 0.7071 0.7071 -13.4442 23.7954)" width="40.5" height="2"/>
        </g>
        <g>
            <polygon points="34.1,16.1 34.1,9.4 36.1,9.4 36.1,14.1 40.7,14.1 40.7,16.1 	"/>
        </g>
        <g>
            <polygon points="28.6,21.6 28.6,10.6 30.6,10.6 30.6,19.6 39.5,19.5 39.5,21.5 	"/>
        </g>
        <g>
            <polygon points="22.2,27.8 22.2,17 24.2,17 24.2,25.8 33,25.7 33,27.7 	"/>
        </g>
        <g>
            <rect x="6.7" y="41.5" width="40.5" height="2"/>
        </g>
        <g>
            <polygon points="48.8,47.2 44,42.5 48.7,37.7 50.2,39.2 46.8,42.5 50.2,45.7 	"/>
        </g>
        <g>
            <polygon points="44,50.2 36.2,42.5 44,34.7 45.4,36.1 39.1,42.5 45.4,48.7 	"/>
        </g>
        <g>
            <polygon points="35,49.9 27.4,42.4 35,34.7 36.4,36.2 30.2,42.4 36.4,48.5 	"/>
        </g>
    </symbol>

    <symbol viewBox="0 0 19 56" id="angle-l" xmlns="http://www.w3.org/2000/svg">
        <rect x="7.8" y="-1.3" transform="matrix(0.866 -0.5 0.5 0.866 -6.1074 6.7289)"  width="3.4" height="32.1"/>
        <rect x="-6.6" y="39.5" transform="matrix(0.5 -0.866 0.866 0.5 -30.9521 28.8385)"  width="32.1" height="3.4"/>
    </symbol>

    <symbol viewBox="0 0 129 115.4" id="supermarket" xmlns="http://www.w3.org/2000/svg">
        <path fill="#BEA05A" d="M124.6,53.8c-2.3-3.3-5.3-6-8.8-7.8V30.5h-7.6l0-18.3L96.9,0l-8.4,6.4l-8-6.1l-8,6.1l-8-6.1l-8,6.1l-8-6.1
	l-8,6.1L32.1,0L20.8,12.2v49.8v3.5C9,67.4,0,77.7,0,90c0,13.7,11,24.8,24.6,24.8H129V68C129,62.9,127.5,58,124.6,53.8z M110.6,52
	c6.6,2.6,10.8,8.9,10.8,16v3.7h-34V68c0-7.1,4.3-13.4,10.8-16l2.4-0.9V38.1h7.6V51L110.6,52z M87.4,79.2h34v10.2h-34V79.2z
	 M35.9,60.9c0,2.4-2,4.4-4.4,4.4h-3.2v-3.2c0-2.4,2-4.4,4.4-4.4h3.2L35.9,60.9z M7.6,90c0-9.5,7.6-17.1,17-17.1s17,7.7,17,17.1
	c0,9.5-7.6,17.1-17,17.1S7.6,99.5,7.6,90z M42.3,107.2c4.2-4.5,6.9-10.5,6.9-17.1c0-8.2-3.9-15.4-10-19.9c2.6-2.2,4.3-5.5,4.3-9.3
	V50H32.7c-1.5,0-3,0.3-4.4,0.8V15.2l4.6-5l7.5,5.8l8-6.1l8,6.1l8-6.1l8,6.1l8-6.1l8,6.1l7.5-5.8l4.6,5l0,15.3h-7.6V46
	c-3.5,1.8-6.5,4.5-8.8,7.8c-2.9,4.2-4.4,9-4.4,14.1v39.2H42.3z M87.4,107.2V97h34v10.2H87.4z"/>
        <path fill="#00C882" d="M25,115.4c-13.8,0-25-11.2-25-25s11.2-25,25-25s25,11.2,25,25S38.8,115.4,25,115.4z M25,74.4
	c-8.8,0-16,7.2-16,16s7.2,16,16,16s16-7.2,16-16S33.8,74.4,25,74.4z"/>
    </symbol>

    <symbol viewBox="0 0 115 114" id="calendar" xmlns="http://www.w3.org/2000/svg">
        <path d="M101.467 6.68013V0H94.729V6.68013H85.228V0H78.4897V6.68013H68.9888V0H62.2505V6.68013H52.7495V0H46.0112V6.68013H36.5103V0H29.772V6.68013H20.271V0H13.5327V6.68013H0V114H115V6.68013H101.467ZM108.262 107.32H6.73828V13.3598H13.5327V20.04H20.271V13.3598H29.772V20.04H36.5103V13.3598H46.0112V20.04H52.7495V13.3598H62.2505V20.04H68.9888V13.3598H78.4897V20.04H85.228V13.3598H94.729V20.04H101.467V13.3598H108.262V107.32Z" fill="#BEA05A"/>
        <path d="M13.4766 100.641H101.523V26.7192H13.4766V100.641ZM20.2148 33.3989H94.7852V93.961H20.2148V33.3989Z" fill="#BEA05A"/>
        <path d="M54.1328 40.0786H60.8711V46.7583H54.1328V40.0786Z" fill="#BEA05A"/>
        <path d="M67.7188 40.0786H74.457V46.7583H67.7188V40.0786Z" fill="#00C882"/>
        <path d="M40.543 80.6016H47.2812V87.2812H40.543V80.6016Z" fill="#BEA05A"/>
        <path d="M54.1328 80.6016H60.8711V87.2812H54.1328V80.6016Z" fill="#BEA05A"/>
        <path d="M67.7188 80.6016H74.457V87.2812H67.7188V80.6016Z" fill="#00C882"/>
        <path d="M81.3086 40.0786H88.0469V46.7583H81.3086V40.0786Z" fill="#BEA05A"/>
        <path d="M81.3086 53.5862H88.0469V60.2659H81.3086V53.5862Z" fill="#BEA05A"/>
        <path d="M81.3086 67.0938H88.0469V73.7734H81.3086V67.0938Z" fill="#BEA05A"/>
        <path d="M67.7188 53.5862H74.457V60.2659H67.7188V53.5862Z" fill="#00C882"/>
        <path d="M67.7188 67.0938H74.457V73.7734H67.7188V67.0938Z" fill="#00C882"/>
        <path d="M54.1328 53.5862H60.8711V60.2659H54.1328V53.5862Z" fill="#BEA05A"/>
        <path d="M54.1328 67.0938H60.8711V73.7734H54.1328V67.0938Z" fill="#BEA05A"/>
        <path d="M40.543 53.5862H47.2812V60.2659H40.543V53.5862Z" fill="#BEA05A"/>
        <path d="M40.543 67.0938H47.2812V73.7734H40.543V67.0938Z" fill="#BEA05A"/>
        <path d="M26.9531 53.5862H33.6914V60.2659H26.9531V53.5862Z" fill="#BEA05A"/>
        <path d="M26.9531 67.0938H33.6914V73.7734H26.9531V67.0938Z" fill="#BEA05A"/>
        <path d="M26.9531 80.6016H33.6914V87.2812H26.9531V80.6016Z" fill="#BEA05A"/>
    </symbol>

    <symbol viewBox="0 0 96.2 108" id="shield" xmlns="http://www.w3.org/2000/svg">
        <path fill="#BEA05A" d="M48.1,108L0,94.4V6l3.6,0.5c3.6,0.5,7.3,0.7,11,0.7c11.2,0,22.1-2.3,32.2-6.7L48.1,0l1.3,0.6
	c10.2,4.4,21,6.7,32.2,6.7c3.7,0,7.4-0.2,11-0.7L96.2,6v88.4L48.1,108z M6.4,89.7l41.7,11.8l41.7-11.8V13.2
	c-2.7,0.3-5.5,0.4-8.2,0.4c-11.7,0-22.9-2.2-33.5-6.7c-10.6,4.4-21.9,6.7-33.5,6.7c-2.7,0-5.5-0.1-8.2-0.4V89.7z"/>
        <path fill="#BEA05A" d="M48.1,94.8l-35.3-10V19.9l3.1,0c10.7-0.1,21.2-2.1,31.1-5.8l1.1-0.4l1.1,0.4c9.9,3.7,20.4,5.6,31.1,5.8l3.1,0
	v64.9L48.1,94.8z M19.2,80.1l28.9,8.2l28.9-8.2v-54c-9.9-0.4-19.7-2.3-28.9-5.7c-9.3,3.3-19,5.2-28.9,5.7V80.1z"/>
        <path  fill="#00C882" d="M57.7,76.5H38.5V63.8H25.8v-19h12.8V32.2h19.2v12.7h12.8v19H57.7V76.5z M44.9,70.2h6.4V57.5h12.8v-6.3H51.3
	V38.5h-6.4v12.7H32.1v6.3h12.8V70.2z"/>
    </symbol>

    <symbol viewBox="0 0 95.3 108" id="home-delivery" xmlns="http://www.w3.org/2000/svg">
        <path  style="fill:#BEA05A;" d="M82.5,101.7V0H12.9v63.7H6.5v38H0v6.3h95.3v-6.3H82.5z M19.2,6.3h57v95.3h-6.3v-89H25.5v51h-6.3V6.3z M25.5,70
	h6.3v6.3h-6.3V70z M31.9,63.7V19h31.6v31.9h-6.3v6.3h6.3v44.5H50.8v-38H31.9z M12.9,70h6.3v12.7h19V70h6.3v31.6H12.9V70z"/>
        <path  style="fill-rule:evenodd;clip-rule:evenodd;fill:#00C882;" d="M6.7,108h45v-6.3h-0.8V64H6.7V108z M31.8,70h-6.3v6.3h6.3V70z M19.2,70h-6.3v31.6h31.6V70h-6.3v12.7h-19V70z"/>
    </symbol>
</svg>
