<svg width="209" height="186" viewBox="0 0 209 186" fill="none" xmlns="http://www.w3.org/2000/svg">
<path d="M19.7422 99.7628L13.5483 89.771V82.7346L19.6014 72.6021H23.7541L29.9479 82.6642V89.7006L23.9652 99.7628H19.7422ZM25.6545 88.1526V86.2528L21.6426 79.7792H20.5164L17.7714 84.7048V86.6046L21.7833 93.0781H22.9799L25.6545 88.1526Z" fill="#1E355E"/>
<path d="M29.3845 67.4658L25.091 72.4617L22.4868 68.2398L35.3672 53.604L38.0418 57.8259L33.678 62.8218L41.4906 75.4874L37.5491 80.0611L29.3845 67.4658Z" fill="#1E355E"/>
<path d="M50.6406 60.289L44.4468 50.2269L45.5025 44.2459L55.3564 36.2947L57.9606 40.5869L50.5702 46.4975V48.1863L54.5821 54.6598H56.0602L63.0987 48.7492L65.7733 52.9711L55.9194 61.1334L50.6406 60.289Z" fill="#1E355E"/>
<path d="M58.0308 34.3242L71.1927 26.373L75.3454 27.3582L77.5273 30.9467L76.9642 33.4095L80.6946 34.2539L83.2284 38.4758L82.1726 42.9087L68.5181 51.2117L58.0308 34.3242ZM72.1077 34.7464V33.9724L71.1927 32.4244H70.4184L65.7731 35.4501L67.3215 37.9128L72.1077 34.7464ZM76.6123 40.7978V39.7423L75.6269 38.1239H74.6415L69.2923 41.3607L71.0519 44.2457L76.6123 40.7978Z" fill="#1E355E"/>
<path d="M85.4107 36.4351L79.1465 26.373L80.7653 21.3771L91.6749 16.5923L97.4464 18.3514L103.5 28.4135L101.951 33.4094L91.1822 38.1942L85.4107 36.4351ZM96.3907 30.5245L96.813 29.0468L92.8011 22.6436L91.2526 22.0807L86.3257 24.262L85.9034 25.6693L89.8449 32.1429L91.6749 32.6354L96.3907 30.5245Z" fill="#1E355E"/>
<path d="M98.7134 13.5666L104.485 12.089L111.523 23.1362H112.086L110.186 10.8224L118.421 8.64111L128.838 25.5286L123.137 27.0063L116.098 15.959H115.535L117.647 28.4136L109.341 30.5949L98.7134 13.5666Z" fill="#1E355E"/>
<path d="M130.738 23.4176L132.076 15.7478L122.574 9.34465L121.729 7.93736L127.712 7.30408L133.765 11.737H134.328L134.68 6.81152H140.452L141.367 8.21881L140.17 15.2553L150.587 22.2917L151.431 23.699L145.449 24.1212L138.41 18.9846H137.847V24.6138L132.005 24.9656L130.738 23.4176Z" fill="#1E355E"/>
<path d="M56.4838 155.492C34.2423 155.492 15.8719 147.963 6.51077 132.834C-12.2115 102.577 12.4934 53.3222 61.4811 22.9951C110.469 -7.33203 165.65 -7.33203 184.302 22.9951L202.602 52.5482L201.546 53.1815L183.176 23.558C164.876 -6.06547 110.539 -5.85437 62.1145 24.1209C13.69 54.0963 -10.8038 102.507 7.21461 132.131C25.233 161.754 79.8514 161.543 128.346 131.638C167.621 107.362 192.396 69.7172 188.595 40.1641H189.862C193.734 70.3505 168.747 108.558 128.98 133.116C107.267 146.957 82.2223 154.687 56.4838 155.492Z" fill="#1E355E"/>
<path d="M74.642 185.045C52.4709 185.045 34.0302 177.446 24.669 162.388L6.43945 132.835L7.49522 132.131L25.7952 161.684C44.0952 191.378 98.432 191.097 146.857 161.192C195.281 131.287 219.775 82.8055 201.475 53.1117C183.175 23.4178 128.768 23.6993 80.3432 53.6042C40.9982 77.6689 16.2229 115.666 20.094 145.36H18.8271C14.8856 115.173 39.9425 76.8949 79.7097 52.3376C128.979 22.0105 183.808 22.0105 202.531 52.3376C221.253 82.6648 196.548 131.99 147.49 162.106C125.75 176.242 100.561 184.174 74.642 185.045Z" fill="#1E355E"/>
<path d="M25.7947 153.803L31.5662 155.914L35.367 162.106L37.4081 162.88L37.8304 158.377L43.5316 160.488L44.4466 161.895L43.4612 166.68L53.5965 176.179L54.4412 177.586L48.5289 175.405L40.2235 167.172L38.0416 166.398L41.9831 172.801L36.282 170.69L25.7947 153.803Z" fill="#1E355E"/>
<path d="M52.8228 172.801H55.5678V172.309L49.4443 160.769L65.8439 161.402L76.2608 178.29H70.1374L62.3951 165.413H57.8905L63.0989 175.123L61.3393 178.079H55.7789L52.8228 172.801Z" fill="#1E355E"/>
<path d="M70.5596 161.262L76.5423 160.066L80.343 166.187L82.8769 165.695L81.1876 162.951L83.0176 158.658L93.153 156.547L99.2061 159.08L105.33 169.143L103.5 173.435L93.3641 175.546L87.3111 172.942L85.5515 170.128L83.0176 170.691L86.8888 176.883L80.9061 178.149L70.5596 161.262ZM97.7984 169.846L98.3614 168.65L94.2088 162.106L92.5899 161.403L88.578 162.177L88.0853 163.373L92.1676 169.846L93.7865 170.62L97.7984 169.846Z" fill="#1E355E"/>
<path d="M118.632 162.458L111.594 165.484L105.752 163.724L99.9102 154.296L105.541 151.974L110.186 159.432L111.383 159.784L115.817 157.955L110.82 149.792L116.451 147.47L126.867 164.358L121.237 166.68L118.632 162.458Z" fill="#1E355E"/>
<path d="M120.392 145.571L135.102 137.197L137.707 141.49L128.346 146.767L129.683 148.948L136.721 145.078L139.044 148.878L132.006 152.748L133.484 155.14L143.126 149.722L145.731 153.944L130.809 162.458L120.392 145.571Z" fill="#1E355E"/>
<path d="M138.128 135.227L150.446 126.01L154.387 126.784L156.569 130.372L156.076 132.976L159.666 133.609L162.27 137.76L161.355 142.545L148.545 152.115L138.128 135.227ZM151.501 134.735V133.89L150.516 132.342H149.883L145.378 135.72L146.926 138.183L151.501 134.735ZM155.936 140.716V139.59L155.021 137.971H154.035L149.038 141.771L150.798 144.656L155.936 140.716Z" fill="#1E355E"/>
<path d="M164.1 135.087L157.836 125.095L158.61 118.832L167.62 109.896L170.294 114.118L163.256 120.802V122.562L167.197 129.035H168.605L175.643 122.351L178.248 126.643L169.098 135.72L164.1 135.087Z" fill="#1E355E"/>
<path d="M169.872 107.433L173.532 102.578L177.262 108.629L178.6 106.87L177.544 97.1596L181.134 92.3044L182.049 93.7821L183.175 104.829L191.339 107.362L192.184 108.77L188.383 113.836L181.345 111.233L180.007 113.062L183.949 119.395L180.289 124.32L169.872 107.433Z" fill="#1E355E"/>
<path d="M190.776 103.844L184.512 93.8524L184.089 86.816L189.087 76.1909H192.887L199.152 86.2531L199.574 93.2895L194.577 103.985L190.776 103.844ZM195.562 91.7415V89.7713L191.55 83.2977H190.213L187.961 88.1529V90.1231L191.972 96.5966H193.028L195.562 91.7415Z" fill="#1E355E"/>
<path d="M191.973 68.5212L194.436 51.7744L197.04 56.0667L195.492 66.6917L196.829 68.873L198.026 61.0625L200.348 64.8622L199.152 72.6727L200.7 75.0651L202.319 64.1586L204.923 68.4508L202.39 85.3383L191.973 68.5212Z" fill="#1E355E"/>
<path d="M77.5979 90.3344C75.7076 86.5097 74.8169 82.2688 75.009 78.007C75.2011 73.7453 76.4697 69.6016 78.6965 65.9624C80.9233 62.3232 84.0357 59.3071 87.7435 57.1953C91.4513 55.0836 95.6337 53.945 99.9005 53.8857C104.167 53.8265 108.38 54.8485 112.145 56.8565C115.91 58.8645 119.105 61.793 121.432 65.369C123.759 68.945 125.142 73.0518 125.453 77.3066C125.763 81.5614 124.99 85.8254 123.207 89.7011L106.315 76.2615C105.256 75.4202 103.937 74.9726 102.584 74.9949C100.956 74.9921 99.3913 75.623 98.2206 76.754C98.2206 76.754 86.6071 88.716 86.5368 88.716C85.5343 88.0936 84.4028 87.7085 83.2287 87.5902C82.474 87.5687 81.7228 87.7011 81.0209 87.9794C80.3191 88.2576 79.6813 88.6759 79.1464 89.2086L77.5979 90.3344Z" fill="#1E355E"/>
<path d="M139.959 108.066L104.766 80.624C103.922 80.0148 102.892 79.7169 101.853 79.781C100.814 79.8452 99.8285 80.2674 99.0653 80.9758C99.0653 80.9758 89.0003 91.1083 88.6484 91.3194C93.0123 93.6414 103.218 98.3559 100.332 104.97C98.5023 109.122 93.2938 110.529 93.2938 115.032C93.2938 119.536 99.1357 122.702 104.063 122.983C116.46 122.623 128.565 119.138 139.255 112.851C139.679 112.638 140.045 112.326 140.322 111.941C140.6 111.556 140.781 111.111 140.85 110.641C140.919 110.172 140.874 109.693 140.719 109.245C140.564 108.797 140.303 108.392 139.959 108.066ZM95.335 102.648C97.3057 99.4817 85.6219 92.3749 84.6365 91.7416C83.7943 91.3185 82.842 91.1658 81.9097 91.3044C80.9775 91.4429 80.1107 91.8659 79.4281 92.5156L62.8877 107.433C62.5191 107.737 62.2222 108.118 62.0185 108.55C61.8147 108.982 61.709 109.453 61.709 109.931C61.709 110.408 61.8147 110.88 62.0185 111.312C62.2222 111.744 62.5191 112.125 62.8877 112.429C67.6945 115.348 72.8188 117.708 78.1611 119.465C75.9088 110.247 92.8715 106.659 95.335 102.648Z" fill="#1E355E"/>
</svg>
